<svg xmlns="http://www.w3.org/2000/svg" xmlns:xlink="http://www.w3.org/1999/xlink" contentStyleType="text/css" data-diagram-type="DESCRIPTION" height="821px" preserveAspectRatio="none" style="width:1224px;height:821px;background:#FFFFFF;" version="1.1" viewBox="0 0 1224 821" width="1224px" zoomAndPan="magnify"><title>C4 Level 3 - CreateJournal Feature in Journal Microservice</title><defs/><g><g class="title" data-source-line="6"><text fill="#000000" font-family="sans-serif" font-size="14" font-weight="bold" lengthAdjust="spacing" textLength="456.8594" x="376.5732" y="30.9951">C4 Level 3 - CreateJournal Feature in Journal Microservice</text></g><!--cluster API + Application Layer--><g class="cluster" data-entity="API + Application Layer" data-source-line="11" data-uid="ent0002" id="cluster_API + Application Layer"><path d="M8.5,59.2969 L211.3486,59.2969 A3.75,3.75 0 0 1 213.8486,61.7969 L220.8486,97.5938 L557.5,97.5938 A2.5,2.5 0 0 1 560,100.0938 L560,590.7969 A2.5,2.5 0 0 1 557.5,593.2969 L8.5,593.2969 A2.5,2.5 0 0 1 6,590.7969 L6,61.7969 A2.5,2.5 0 0 1 8.5,59.2969" fill="#F0F8FF" style="stroke:#000000;stroke-width:1.5;"/><line style="stroke:#000000;stroke-width:1.5;" x1="6" x2="220.8486" y1="97.5938" y2="97.5938"/><text fill="#000000" font-family="sans-serif" font-size="14" font-weight="bold" lengthAdjust="spacing" textLength="185.8486" x="18" y="82.292">API + Application Layer</text></g><!--cluster Domain Layer--><g class="cluster" data-entity="Domain Layer" data-source-line="19" data-uid="ent0007" id="cluster_Domain Layer"><path d="M1019.5,457.2969 L1145.3076,457.2969 A3.75,3.75 0 0 1 1147.8076,459.7969 L1154.8076,495.5938 L1204.5,495.5938 A2.5,2.5 0 0 1 1207,498.0938 L1207,770.7969 A2.5,2.5 0 0 1 1204.5,773.2969 L1019.5,773.2969 A2.5,2.5 0 0 1 1017,770.7969 L1017,459.7969 A2.5,2.5 0 0 1 1019.5,457.2969" fill="#F9F0FF" style="stroke:#000000;stroke-width:1.5;"/><line style="stroke:#000000;stroke-width:1.5;" x1="1017" x2="1154.8076" y1="495.5938" y2="495.5938"/><text fill="#000000" font-family="sans-serif" font-size="14" font-weight="bold" lengthAdjust="spacing" textLength="108.8076" x="1029" y="480.292">Domain Layer</text></g><!--cluster Persistence Layer--><g class="cluster" data-entity="Persistence Layer" data-source-line="25" data-uid="ent0010" id="cluster_Persistence Layer"><path d="M586.5,258.2969 L744.3408,258.2969 A3.75,3.75 0 0 1 746.8408,260.7969 L753.8408,296.5938 L990.5,296.5938 A2.5,2.5 0 0 1 993,299.0938 L993,590.7969 A2.5,2.5 0 0 1 990.5,593.2969 L586.5,593.2969 A2.5,2.5 0 0 1 584,590.7969 L584,260.7969 A2.5,2.5 0 0 1 586.5,258.2969" fill="#E8FFF8" style="stroke:#000000;stroke-width:1.5;"/><line style="stroke:#000000;stroke-width:1.5;" x1="584" x2="753.8408" y1="296.5938" y2="296.5938"/><text fill="#000000" font-family="sans-serif" font-size="14" font-weight="bold" lengthAdjust="spacing" textLength="140.8408" x="596" y="281.292">Persistence Layer</text></g><!--entity Endpoint--><g class="entity" data-entity="Endpoint" data-source-line="12" data-uid="ent0003" id="entity_Endpoint"><rect fill="#F1F1F1" height="68.5938" rx="2.5" ry="2.5" style="stroke:#181818;stroke-width:0.5;" width="193.8008" x="350" y="110.2969"/><text fill="#000000" font-family="sans-serif" font-size="14" lengthAdjust="spacing" textLength="157.8008" x="368" y="141.292">CreateJournalEndpoint</text><text fill="#000000" font-family="sans-serif" font-size="14" lengthAdjust="spacing" textLength="109.9424" x="391.9292" y="157.5889">(FastEndpoints)</text></g><!--entity Command--><g class="entity" data-entity="Command" data-source-line="13" data-uid="ent0004" id="entity_Command"><rect fill="#F1F1F1" height="68.5938" rx="2.5" ry="2.5" style="stroke:#181818;stroke-width:0.5;" width="203.4463" x="103.5" y="508.2969"/><text fill="#000000" font-family="sans-serif" font-size="14" lengthAdjust="spacing" textLength="167.4463" x="121.5" y="539.292">CreateJournalCommand</text><text fill="#000000" font-family="sans-serif" font-size="14" lengthAdjust="spacing" textLength="117.6807" x="146.3828" y="555.5889">(Command DTO)</text></g><!--entity Validator--><g class="entity" data-entity="Validator" data-source-line="14" data-uid="ent0005" id="entity_Validator"><rect fill="#F1F1F1" height="68.5938" rx="2.5" ry="2.5" style="stroke:#181818;stroke-width:0.5;" width="194.7031" x="21.5" y="309.2969"/><text fill="#000000" font-family="sans-serif" font-size="14" lengthAdjust="spacing" textLength="158.7031" x="39.5" y="340.292">CreateJournalValidator</text><text fill="#000000" font-family="sans-serif" font-size="14" lengthAdjust="spacing" textLength="124.9336" x="56.3848" y="356.5889">(FluentValidation)</text></g><!--entity Response--><g class="entity" data-entity="Response" data-source-line="15" data-uid="ent0006" id="entity_Response"><rect fill="#F1F1F1" height="68.5938" rx="2.5" ry="2.5" style="stroke:#181818;stroke-width:0.5;" width="149.5928" x="394" y="309.2969"/><text fill="#000000" font-family="sans-serif" font-size="14" lengthAdjust="spacing" textLength="80.8828" x="428.355" y="340.292">IdResponse</text><text fill="#000000" font-family="sans-serif" font-size="14" lengthAdjust="spacing" textLength="113.5928" x="412" y="356.5889">(Response DTO)</text></g><!--entity Journal--><g class="entity" data-entity="Journal" data-source-line="20" data-uid="ent0008" id="entity_Journal"><rect fill="#F1F1F1" height="68.5938" rx="2.5" ry="2.5" style="stroke:#181818;stroke-width:0.5;" width="157.0098" x="1033.5" y="508.2969"/><text fill="#000000" font-family="sans-serif" font-size="14" lengthAdjust="spacing" textLength="48.665" x="1087.6724" y="539.292">Journal</text><text fill="#000000" font-family="sans-serif" font-size="14" lengthAdjust="spacing" textLength="121.0098" x="1051.5" y="555.5889">(Aggregate Root)</text></g><!--entity Children--><g class="entity" data-entity="Children" data-source-line="21" data-uid="ent0009" id="entity_Children"><rect fill="#F1F1F1" height="84.8906" rx="2.5" ry="2.5" style="stroke:#181818;stroke-width:0.5;" width="131.915" x="1033" y="672.2969"/><text fill="#000000" font-family="sans-serif" font-size="14" lengthAdjust="spacing" textLength="56.4648" x="1070.7251" y="703.292">Section,</text><text fill="#000000" font-family="sans-serif" font-size="14" lengthAdjust="spacing" textLength="93.4473" x="1052.2339" y="719.5889">SectionEditor</text><text fill="#000000" font-family="sans-serif" font-size="14" lengthAdjust="spacing" textLength="95.915" x="1051" y="735.8857">(Entities/VOs)</text></g><!--entity Repository--><g class="entity" data-entity="Repository" data-source-line="26" data-uid="ent0011" id="entity_Repository"><rect fill="#F1F1F1" height="68.5938" rx="2.5" ry="2.5" style="stroke:#181818;stroke-width:0.5;" width="183.1982" x="793.5" y="309.2969"/><text fill="#000000" font-family="sans-serif" font-size="14" lengthAdjust="spacing" textLength="147.1982" x="811.5" y="340.292">Repository&lt;Journal&gt;</text><text fill="#000000" font-family="sans-serif" font-size="14" lengthAdjust="spacing" textLength="76.8838" x="846.6572" y="356.5889">(Redis OM)</text></g><!--entity DbContext--><g class="entity" data-entity="DbContext" data-source-line="27" data-uid="ent0012" id="entity_DbContext"><rect fill="#F1F1F1" height="68.5938" rx="2.5" ry="2.5" style="stroke:#181818;stroke-width:0.5;" width="159.4229" x="599.5" y="309.2969"/><text fill="#000000" font-family="sans-serif" font-size="14" lengthAdjust="spacing" textLength="123.4229" x="617.5" y="340.292">JournalDbContext</text><text fill="#000000" font-family="sans-serif" font-size="14" lengthAdjust="spacing" textLength="76.8838" x="640.7695" y="356.5889">(Redis OM)</text></g><!--entity Editor--><g class="entity" data-entity="Editor" data-source-line="28" data-uid="ent0013" id="entity_Editor"><rect fill="#F1F1F1" height="68.5938" rx="2.5" ry="2.5" style="stroke:#181818;stroke-width:0.5;" width="87.7959" x="635" y="508.2969"/><text fill="#000000" font-family="sans-serif" font-size="14" lengthAdjust="spacing" textLength="41.4326" x="658.1816" y="539.292">Editor</text><text fill="#000000" font-family="sans-serif" font-size="14" lengthAdjust="spacing" textLength="51.7959" x="653" y="555.5889">(Entity)</text></g><!--link Endpoint to Command--><g class="link" data-entity-1="Endpoint" data-entity-2="Command" data-source-line="32" data-uid="lnk14" id="link_Endpoint_Command"><path d="M381.04,179.4669 C353.33,196.9069 323.34,220.7969 305,250.2969 C259.47,323.5169 302.87,361.1769 271,441.2969 C261.51,465.1569 249.4462,484.447 235.7962,503.077" fill="none" id="Endpoint-to-Command" style="stroke:#181818;stroke-width:1;"/><polygon fill="#181818" points="232.25,507.9169,240.7958,503.0211,235.2051,503.8836,234.3426,498.2929,232.25,507.9169" style="stroke:#181818;stroke-width:1;"/><text fill="#000000" font-family="sans-serif" font-size="13" lengthAdjust="spacing" textLength="54.5645" x="314" y="348.3638">receives</text></g><!--link Endpoint to Validator--><g class="link" data-entity-1="Endpoint" data-entity-2="Validator" data-source-line="33" data-uid="lnk15" id="link_Endpoint_Validator"><path d="M349.9,153.9169 C301.67,161.9569 244.74,177.8669 202,209.2969 C167.7,234.5169 146.725,273.0541 133.745,303.6241" fill="none" id="Endpoint-to-Validator" style="stroke:#181818;stroke-width:1;"/><polygon fill="#181818" points="131.4,309.1469,138.5993,302.426,133.3541,304.5446,131.2356,299.2994,131.4,309.1469" style="stroke:#181818;stroke-width:1;"/><text fill="#000000" font-family="sans-serif" font-size="13" lengthAdjust="spacing" textLength="58.9697" x="211" y="230.3638">validates</text></g><!--link Validator to Command--><g class="link" data-entity-1="Validator" data-entity-2="Command" data-source-line="34" data-uid="lnk16" id="link_Validator_Command"><path d="M133.78,378.6669 C149.58,414.8569 172.0784,466.3985 187.8684,502.5485" fill="none" id="Validator-to-Command" style="stroke:#181818;stroke-width:1;"/><polygon fill="#181818" points="190.27,508.0469,190.3331,498.1982,188.2686,503.4649,183.002,501.4004,190.27,508.0469" style="stroke:#181818;stroke-width:1;"/><text fill="#000000" font-family="sans-serif" font-size="13" lengthAdjust="spacing" textLength="85.541" x="169" y="429.3638">checks props</text></g><!--link Endpoint to Repository--><g class="link" data-entity-1="Endpoint" data-entity-2="Repository" data-source-line="35" data-uid="lnk17" id="link_Endpoint_Repository"><path d="M544.23,158.6169 C597.8,168.0669 664.5,183.8269 720,209.2969 C772.58,233.4269 818.4822,273.9194 849.4122,304.9194" fill="none" id="Endpoint-to-Repository" style="stroke:#181818;stroke-width:1;"/><polygon fill="#181818" points="853.65,309.1669,850.1249,299.9705,850.1185,305.6273,844.4616,305.621,853.65,309.1669" style="stroke:#181818;stroke-width:1;"/><text fill="#000000" font-family="sans-serif" font-size="13" lengthAdjust="spacing" textLength="111.1982" x="783" y="230.3638">stores aggregate</text></g><!--link Endpoint to DbContext--><g class="link" data-entity-1="Endpoint" data-entity-2="DbContext" data-source-line="36" data-uid="lnk18" id="link_Endpoint_DbContext"><path d="M516.98,179.3669 C532.47,188.1469 548.32,198.2869 562,209.2969 C598.49,238.6769 629.2636,275.4468 651.2036,304.3668" fill="none" id="Endpoint-to-DbContext" style="stroke:#181818;stroke-width:1;"/><polygon fill="#181818" points="654.83,309.1469,652.5771,299.5591,651.808,305.1635,646.2037,304.3943,654.83,309.1469" style="stroke:#181818;stroke-width:1;"/><text fill="#000000" font-family="sans-serif" font-size="13" lengthAdjust="spacing" textLength="97.5952" x="606" y="230.3638">queries Editors</text></g><!--link Endpoint to Journal--><g class="link" data-entity-1="Endpoint" data-entity-2="Journal" data-source-line="37" data-uid="lnk19" id="link_Endpoint_Journal"><path d="M544.26,150.9169 C684.59,160.4469 933.55,186.1469 993,250.2969 C1063.22,326.0769 1093.4619,442.9597 1105.0819,502.0297" fill="none" id="Endpoint-to-Journal" style="stroke:#181818;stroke-width:1;"/><polygon fill="#181818" points="1106.24,507.9169,1108.4276,498.314,1105.2749,503.0109,1100.5781,499.8582,1106.24,507.9169" style="stroke:#181818;stroke-width:1;"/><text fill="#000000" font-family="sans-serif" font-size="13" lengthAdjust="spacing" textLength="41.5518" x="1076" y="348.3638">create</text></g><!--link Journal to Children--><g class="link" data-entity-1="Journal" data-entity-2="Children" data-source-line="38" data-uid="lnk20" id="link_Journal_Children"><path d="M1109.43,577.3869 C1107.35,604.5769 1104.8677,637.0244 1102.6377,666.1744" fill="none" id="Journal-to-Children" style="stroke:#181818;stroke-width:1;"/><polygon fill="#181818" points="1102.18,672.1569,1106.8548,663.4882,1102.5614,667.1714,1098.8782,662.878,1102.18,672.1569" style="stroke:#181818;stroke-width:1;"/><text fill="#000000" font-family="sans-serif" font-size="13" lengthAdjust="spacing" textLength="93.0059" x="1115" y="630.3638">owns/contains</text></g><!--link Repository to Journal--><g class="link" data-entity-1="Repository" data-entity-2="Journal" data-source-line="39" data-uid="lnk21" id="link_Repository_Journal"><path d="M918.47,378.6969 C937.53,397.5969 962.12,421.2869 985,441.2969 C1011.56,464.5269 1037.8453,485.4772 1062.5953,504.5272" fill="none" id="Repository-to-Journal" style="stroke:#181818;stroke-width:1;"/><polygon fill="#181818" points="1067.35,508.1869,1062.6578,499.5276,1063.3878,505.1372,1057.7782,505.8672,1067.35,508.1869" style="stroke:#181818;stroke-width:1;"/><text fill="#000000" font-family="sans-serif" font-size="13" lengthAdjust="spacing" textLength="50.6226" x="994" y="429.3638">persists</text></g><!--link DbContext to Editor--><g class="link" data-entity-1="DbContext" data-entity-2="Editor" data-source-line="40" data-uid="lnk22" id="link_DbContext_Editor"><path d="M679,378.6669 C679,414.8569 679,465.8969 679,502.0469" fill="none" id="DbContext-to-Editor" style="stroke:#181818;stroke-width:1;"/><polygon fill="#181818" points="679,508.0469,683,499.0469,679,503.0469,675,499.0469,679,508.0469" style="stroke:#181818;stroke-width:1;"/><text fill="#000000" font-family="sans-serif" font-size="13" lengthAdjust="spacing" textLength="48.2168" x="688" y="429.3638">queries</text></g><!--link Endpoint to Response--><g class="link" data-entity-1="Endpoint" data-entity-2="Response" data-source-line="41" data-uid="lnk23" id="link_Endpoint_Response"><path d="M450.78,179.6669 C454.82,215.8569 460.5236,266.934 464.5636,303.084" fill="none" id="Endpoint-to-Response" style="stroke:#181818;stroke-width:1;"/><polygon fill="#181818" points="465.23,309.0469,468.2057,299.6583,464.6747,304.0778,460.2552,300.5468,465.23,309.0469" style="stroke:#181818;stroke-width:1;"/><text fill="#000000" font-family="sans-serif" font-size="13" lengthAdjust="spacing" textLength="79.3521" x="466" y="230.3638">returns DTO</text></g><g class="caption" data-source-line="7"><text fill="#000000" font-family="sans-serif" font-size="14" lengthAdjust="spacing" textLength="617.0664" x="296.4697" y="801.292">Shows internal components and interactions of CreateJournal within the Journal service.</text></g><!--SRC=[TLJ1ZjCm4BtxAqRB0H2KHO93GMYbgcsaebtjgbtjXULWd6bYDRM3nsctGlmxuyHEsrHSMcVyPjwRDvFGHfjQEha5PRUrDMZyoXyg18VAIrDKAAY7vBYMJUKVySLFAbsOBQD1yG-w4nILChTxRGfOoufEyskPvo4-5i9hpoJJpt2BEwpW4unWwb1w_6uRPsG56Jyq3a4RIA4xhPmbT3kjK2XPUsqDh4gx9qQnXe3fko2G9k_YKWKaWLqFEFRQbrpVbzXpnF8VX12lOVAmW7SmgUjAAzcotSe3zrfBjP45mjL_05VmAlkOZRCC_WY07sUaSvFNbcKzcpUP99yUwUrFa0JfyI9jQhTRReYpuWbcZ_TTJWnSf3p9IkVIMnUegeOzYH7MsMNsY92xo9T8x1qXuzFno98YuczmPcQtKb_OSHeD7dnX5w87KHENdXI5mu9bmj9QtnMFjm6umdPQxvzDFCrptVKmDxmq6kdwwJwwDIrrbJiqdQQ5MJjsr3MgNPo1jWTqfCcZKTWBdFE8id4dS8crfS1q-1RLtBG-v9hW_Yvva30dBSr-JIrlsOk_WFSt0NtUnY6EkmrsyfTOjQEXKjSaqYB0Q7IJ9WnVmrk9UeU3-twEZDXrPuOSe-SrL8bgGr0xE-GvziSmud_ajoYDwnpQzyR8tmqwdaliPb0plLZCsowdI85ML1mWtzgzeMl5DNc3I9meEIzITsCaSHGG01trKSkmhxZDmK1U3luMy5x_0m00]--></g></svg>