<svg xmlns="http://www.w3.org/2000/svg" xmlns:xlink="http://www.w3.org/1999/xlink" contentStyleType="text/css" data-diagram-type="DESCRIPTION" height="655px" preserveAspectRatio="none" style="width:582px;height:655px;background:#FFFFFF;" version="1.1" viewBox="0 0 582 655" width="582px" zoomAndPan="magnify"><title>C4 Level 2 - Integration - Validate Editor assignment</title><defs/><g><g class="title" data-source-line="6"><text fill="#000000" font-family="sans-serif" font-size="14" font-weight="bold" lengthAdjust="spacing" textLength="415.7959" x="76.1021" y="30.9951">C4 Level 2 - Integration - Validate Editor assignment</text></g><!--cluster Journal Service--><g class="cluster" data-entity="Journal Service" data-source-line="12" data-uid="ent0004" id="cluster_Journal Service"><path d="M8.5,455.2969 L144.4863,455.2969 A3.75,3.75 0 0 1 146.9863,457.7969 L153.9863,493.5938 L572.5,493.5938 A2.5,2.5 0 0 1 575,496.0938 L575,588.7969 A2.5,2.5 0 0 1 572.5,591.2969 L8.5,591.2969 A2.5,2.5 0 0 1 6,588.7969 L6,457.7969 A2.5,2.5 0 0 1 8.5,455.2969" fill="#F0F8FF" style="stroke:#000000;stroke-width:1.5;"/><line style="stroke:#000000;stroke-width:1.5;" x1="6" x2="153.9863" y1="493.5938" y2="493.5938"/><text fill="#000000" font-family="sans-serif" font-size="14" font-weight="bold" lengthAdjust="spacing" textLength="118.9863" x="18" y="478.292">Journal Service</text></g><!--cluster Submission Service--><g class="cluster" data-entity="Submission Service" data-source-line="17" data-uid="ent0007" id="cluster_Submission Service"><path d="M285.5,229.7969 L456.083,229.7969 A3.75,3.75 0 0 1 458.583,232.2969 L465.583,268.0938 L538.5,268.0938 A2.5,2.5 0 0 1 541,270.5938 L541,363.2969 A2.5,2.5 0 0 1 538.5,365.7969 L285.5,365.7969 A2.5,2.5 0 0 1 283,363.2969 L283,232.2969 A2.5,2.5 0 0 1 285.5,229.7969" fill="#F9F0FF" style="stroke:#000000;stroke-width:1.5;"/><line style="stroke:#000000;stroke-width:1.5;" x1="283" x2="465.583" y1="268.0938" y2="268.0938"/><text fill="#000000" font-family="sans-serif" font-size="14" font-weight="bold" lengthAdjust="spacing" textLength="153.583" x="295" y="252.792">Submission Service</text></g><!--entity JournalAPI--><g class="entity" data-entity="JournalAPI" data-source-line="13" data-uid="ent0005" id="entity_JournalAPI"><rect fill="#F1F1F1" height="68.5938" rx="2.5" ry="2.5" style="stroke:#181818;stroke-width:0.5;" width="206.5771" x="22.5" y="506.2969"/><text fill="#000000" font-family="sans-serif" font-size="14" lengthAdjust="spacing" textLength="170.5771" x="40.5" y="537.292">Update Journal Endpoint</text><text fill="#000000" font-family="sans-serif" font-size="14" lengthAdjust="spacing" textLength="102.6211" x="74.478" y="553.5889">(Assign Editor)</text></g><!--entity JournalGRPC--><g class="entity" data-entity="JournalGRPC" data-source-line="14" data-uid="ent0006" id="entity_JournalGRPC"><rect fill="#F1F1F1" height="68.5938" rx="2.5" ry="2.5" style="stroke:#181818;stroke-width:0.5;" width="294.3711" x="265" y="506.2969"/><text fill="#000000" font-family="sans-serif" font-size="14" lengthAdjust="spacing" textLength="89.9473" x="367.2119" y="537.292">Journal gRPC</text><text fill="#000000" font-family="sans-serif" font-size="14" lengthAdjust="spacing" textLength="258.3711" x="283" y="553.5889">(Check Editor Assignment to Journal)</text></g><!--entity ApprovalCheck--><g class="entity" data-entity="ApprovalCheck" data-source-line="18" data-uid="ent0008" id="entity_ApprovalCheck"><rect fill="#F1F1F1" height="68.5938" rx="2.5" ry="2.5" style="stroke:#181818;stroke-width:0.5;" width="226.2646" x="299" y="280.7969"/><text fill="#000000" font-family="sans-serif" font-size="14" lengthAdjust="spacing" textLength="129.1855" x="347.5396" y="311.792">Approval Endpoint</text><text fill="#000000" font-family="sans-serif" font-size="14" lengthAdjust="spacing" textLength="190.2646" x="317" y="328.0889">Validate Editor Assignment</text></g><!--entity Admin--><g class="entity" data-entity="Admin" data-source-line="9" data-uid="ent0002" id="entity_Admin"><ellipse cx="126.0527" cy="277.7969" fill="#F1F1F1" rx="8" ry="8" style="stroke:#181818;stroke-width:0.5;"/><path d="M126.0527,285.7969 L126.0527,312.7969 M113.0527,293.7969 L139.0527,293.7969 M126.0527,312.7969 L113.0527,327.7969 M126.0527,312.7969 L139.0527,327.7969" fill="none" style="stroke:#181818;stroke-width:0.5;"/><text fill="#000000" font-family="sans-serif" font-size="14" lengthAdjust="spacing" textLength="107.1055" x="72.5" y="350.292">Editorial Admin</text></g><!--entity EditorUser--><g class="entity" data-entity="EditorUser" data-source-line="10" data-uid="ent0003" id="entity_EditorUser"><ellipse cx="412.2163" cy="67.2969" fill="#F1F1F1" rx="8" ry="8" style="stroke:#181818;stroke-width:0.5;"/><path d="M412.2163,75.2969 L412.2163,102.2969 M399.2163,83.2969 L425.2163,83.2969 M412.2163,102.2969 L399.2163,117.2969 M412.2163,102.2969 L425.2163,117.2969" fill="none" style="stroke:#181818;stroke-width:0.5;"/><text fill="#000000" font-family="sans-serif" font-size="14" lengthAdjust="spacing" textLength="41.4326" x="391.5" y="139.792">Editor</text></g><!--link Admin to JournalAPI--><g class="link" data-entity-1="Admin" data-entity-2="JournalAPI" data-source-line="22" data-uid="lnk9" id="link_Admin_JournalAPI"><path d="M126,361.5269 C126,404.3869 126,461.7669 126,500.2769" fill="none" id="Admin-to-JournalAPI" style="stroke:#181818;stroke-width:1;"/><polygon fill="#181818" points="126,506.2769,130,497.2769,126,501.2769,122,497.2769,126,506.2769" style="stroke:#181818;stroke-width:1;"/><text fill="#000000" font-family="sans-serif" font-size="13" lengthAdjust="spacing" textLength="122.7827" x="135" y="419.8638">Assign Chief Editor</text></g><!--link EditorUser to ApprovalCheck--><g class="link" data-entity-1="EditorUser" data-entity-2="ApprovalCheck" data-source-line="25" data-uid="lnk10" id="link_EditorUser_ApprovalCheck"><path d="M412,151.0369 C412,190.0869 412,239.5969 412,274.7769" fill="none" id="EditorUser-to-ApprovalCheck" style="stroke:#181818;stroke-width:1;"/><polygon fill="#181818" points="412,280.7769,416,271.7769,412,275.7769,408,271.7769,412,280.7769" style="stroke:#181818;stroke-width:1;"/><text fill="#000000" font-family="sans-serif" font-size="13" lengthAdjust="spacing" textLength="106.9961" x="421" y="201.8638">Approves Article</text></g><!--link ApprovalCheck to JournalGRPC--><g class="link" data-entity-1="ApprovalCheck" data-entity-2="JournalGRPC" data-source-line="26" data-uid="lnk11" id="link_ApprovalCheck_JournalGRPC"><path d="M412,350.2369 C412,392.4969 412,458.2069 412,500.2669" fill="none" id="ApprovalCheck-to-JournalGRPC" style="stroke:#181818;stroke-width:1;"/><polygon fill="#181818" points="412,506.2669,416,497.2669,412,501.2669,408,497.2669,412,506.2669" style="stroke:#181818;stroke-width:1;"/><text fill="#000000" font-family="sans-serif" font-size="13" lengthAdjust="spacing" textLength="78.3237" x="443.3564" y="412.3638">gRPC Check</text><text fill="#000000" font-family="sans-serif" font-size="13" lengthAdjust="spacing" textLength="123.0366" x="421" y="427.4966">Is Editor Assigned?</text></g><g class="caption" data-source-line="7"><text fill="#000000" font-family="sans-serif" font-size="14" lengthAdjust="spacing" textLength="254.5293" x="156.7354" y="619.292">Editorial Admin assigns Chief Editor.</text><text fill="#000000" font-family="sans-serif" font-size="14" lengthAdjust="spacing" textLength="515.7852" x="26.1074" y="635.5889">Editor approval triggers gRPC validation of assignment in Journal Service.</text></g><!--SRC=[NL8xJyCm4DxzAqvb08OYX1Y00HHL51KnL1HOA8EnBwbLnxPijmKX_Zjd9w595ykFxtLt3cjb7FUy1c5hPmsQk8ZV6i6ZYDnK6bduXqWi-KR75_oAXLQLgGaDWXRqFLHOSMbtobHGSXtwVCUbJFTNZ4KLoMHo2K-uHGqNC8OPwLIUHsKDdTwuLf97X7kfelN0GsWTcU0kWveNnJKKibQcXGIOh1IMxUlPqdG2pdcx9N3qgghG1wYUvnFODZv9pvOz5o31HxlnXXWBz5iby8mnBfBKwC1vHBncDmJa-sRx6gX7p76nvXN2w41v14VJy-dLT0e_3E3zrUNAEz2zaSug4vVcfCZvMitJZwJVeehvB54xJggDy9CLYdNNmc9VNBGTRo3oG2pssykvs7pMYcZKdLxKQmhRHYswhkv37avkRvkjEaQEbioEs_6LskvOinsFRtjrmKshCPXi8XwEDali6vvr1dv9Af-HWlYe1Ftl8Q1ddRf1XFnDykFIpCAmAfHtVm00]--></g></svg>