<svg xmlns="http://www.w3.org/2000/svg" xmlns:xlink="http://www.w3.org/1999/xlink" contentStyleType="text/css" data-diagram-type="DESCRIPTION" height="793px" preserveAspectRatio="none" style="width:459px;height:793px;background:#FFFFFF;" version="1.1" viewBox="0 0 459 793" width="459px" zoomAndPan="magnify"><title>C4 Level 2 - Integration - Update Journal</title><defs/><g><g class="title" data-source-line="6"><text fill="#000000" font-family="sans-serif" font-size="14" font-weight="bold" lengthAdjust="spacing" textLength="319.1016" x="66.21" y="30.9951">C4 Level 2 - Integration - Update Journal</text></g><!--cluster Journal Service--><g class="cluster" data-entity="Journal Service" data-source-line="11" data-uid="ent0003" id="cluster_Journal Service"><path d="M84.1575,229.7969 L220.1438,229.7969 A3.75,3.75 0 0 1 222.6438,232.2969 L229.6438,268.0938 L319.1575,268.0938 A2.5,2.5 0 0 1 321.6575,270.5938 L321.6575,525.2969 A2.5,2.5 0 0 1 319.1575,527.7969 L84.1575,527.7969 A2.5,2.5 0 0 1 81.6575,525.2969 L81.6575,232.2969 A2.5,2.5 0 0 1 84.1575,229.7969" fill="#F0F8FF" style="stroke:#000000;stroke-width:1.5;"/><line style="stroke:#000000;stroke-width:1.5;" x1="81.6575" x2="229.6438" y1="268.0938" y2="268.0938"/><text fill="#000000" font-family="sans-serif" font-size="14" font-weight="bold" lengthAdjust="spacing" textLength="118.9863" x="93.6575" y="252.792">Journal Service</text></g><!--cluster Submission Service--><g class="cluster" data-entity="Submission Service" data-source-line="16" data-uid="ent0006" id="cluster_Submission Service"><path d="M66.1575,592.7969 L236.7405,592.7969 A3.75,3.75 0 0 1 239.2405,595.2969 L246.2405,631.0938 L319.1575,631.0938 A2.5,2.5 0 0 1 321.6575,633.5938 L321.6575,726.2969 A2.5,2.5 0 0 1 319.1575,728.7969 L66.1575,728.7969 A2.5,2.5 0 0 1 63.6575,726.2969 L63.6575,595.2969 A2.5,2.5 0 0 1 66.1575,592.7969" fill="#F9F0FF" style="stroke:#000000;stroke-width:1.5;"/><line style="stroke:#000000;stroke-width:1.5;" x1="63.6575" x2="246.2405" y1="631.0938" y2="631.0938"/><text fill="#000000" font-family="sans-serif" font-size="14" font-weight="bold" lengthAdjust="spacing" textLength="153.583" x="75.6575" y="615.792">Submission Service</text></g><!--entity JournalAPI--><g class="entity" data-entity="JournalAPI" data-source-line="12" data-uid="ent0004" id="entity_JournalAPI"><rect fill="#F1F1F1" height="68.5938" rx="2.5" ry="2.5" style="stroke:#181818;stroke-width:0.5;" width="206.5771" x="98.1575" y="280.7969"/><text fill="#000000" font-family="sans-serif" font-size="14" lengthAdjust="spacing" textLength="170.5771" x="116.1575" y="311.792">Update Journal Endpoint</text><text fill="#000000" font-family="sans-serif" font-size="14" lengthAdjust="spacing" textLength="73.5342" x="164.679" y="328.0889">(REST API)</text></g><!--entity JournalEvent--><g class="entity" data-entity="JournalEvent" data-source-line="13" data-uid="ent0005" id="entity_JournalEvent"><rect fill="#F1F1F1" height="68.5938" rx="2.5" ry="2.5" style="stroke:#181818;stroke-width:0.5;" width="188.8105" x="98.1575" y="442.7969"/><text fill="#000000" font-family="sans-serif" font-size="14" lengthAdjust="spacing" textLength="152.8105" x="116.1575" y="473.792">JournalUpdated Event</text><text fill="#000000" font-family="sans-serif" font-size="14" lengthAdjust="spacing" textLength="79.4814" x="152.822" y="490.0889">(RabbitMQ)</text></g><!--entity SubEventConsumer--><g class="entity" data-entity="SubEventConsumer" data-source-line="17" data-uid="ent0007" id="entity_SubEventConsumer"><rect fill="#F1F1F1" height="68.5938" rx="2.5" ry="2.5" style="stroke:#181818;stroke-width:0.5;" width="225.9707" x="79.6575" y="643.7969"/><text fill="#000000" font-family="sans-serif" font-size="14" lengthAdjust="spacing" textLength="115.9443" x="134.6707" y="674.792">Event Consumer</text><text fill="#000000" font-family="sans-serif" font-size="14" lengthAdjust="spacing" textLength="189.9707" x="97.6575" y="691.0889">Updates Local Journal Data</text></g><!--entity Admin--><g class="entity" data-entity="Admin" data-source-line="9" data-uid="ent0002" id="entity_Admin"><ellipse cx="201.7102" cy="67.2969" fill="#F1F1F1" rx="8" ry="8" style="stroke:#181818;stroke-width:0.5;"/><path d="M201.7102,75.2969 L201.7102,102.2969 M188.7102,83.2969 L214.7102,83.2969 M201.7102,102.2969 L188.7102,117.2969 M201.7102,102.2969 L214.7102,117.2969" fill="none" style="stroke:#181818;stroke-width:0.5;"/><text fill="#000000" font-family="sans-serif" font-size="14" lengthAdjust="spacing" textLength="107.1055" x="148.1575" y="139.792">Editorial Admin</text></g><!--link Admin to JournalAPI--><g class="link" data-entity-1="Admin" data-entity-2="JournalAPI" data-source-line="21" data-uid="lnk8" id="link_Admin_JournalAPI"><path d="M201.6575,151.0369 C201.6575,190.0869 201.6575,239.5969 201.6575,274.7769" fill="none" id="Admin-to-JournalAPI" style="stroke:#181818;stroke-width:1;"/><polygon fill="#181818" points="201.6575,280.7769,205.6575,271.7769,201.6575,275.7769,197.6575,271.7769,201.6575,280.7769" style="stroke:#181818;stroke-width:1;"/><text fill="#000000" font-family="sans-serif" font-size="13" lengthAdjust="spacing" textLength="181.2065" x="210.6575" y="201.8638">Manage Journals &amp; Sections</text></g><!--link JournalAPI to JournalEvent--><g class="link" data-entity-1="JournalAPI" data-entity-2="JournalEvent" data-source-line="24" data-uid="lnk9" id="link_JournalAPI_JournalEvent"><path d="M199.7675,349.8369 C198.2375,377.0569 196.4235,409.2563 194.8935,436.5363" fill="none" id="JournalAPI-to-JournalEvent" style="stroke:#181818;stroke-width:1;"/><polygon fill="#181818" points="194.5575,442.5269,199.0552,433.765,194.8375,437.5347,191.0677,433.317,194.5575,442.5269" style="stroke:#181818;stroke-width:1;"/><text fill="#000000" font-family="sans-serif" font-size="13" lengthAdjust="spacing" textLength="151.2202" x="206.6575" y="400.8638">Publish JournalUpdated</text></g><!--link JournalEvent to SubEventConsumer--><g class="link" data-entity-1="JournalEvent" data-entity-2="SubEventConsumer" data-source-line="25" data-uid="lnk10" id="link_JournalEvent_SubEventConsumer"><path d="M192.6575,512.0569 C192.6575,548.7569 192.6575,601.0669 192.6575,637.7069" fill="none" id="JournalEvent-to-SubEventConsumer" style="stroke:#181818;stroke-width:1;"/><polygon fill="#181818" points="192.6575,643.7069,196.6575,634.7069,192.6575,638.7069,188.6575,634.7069,192.6575,643.7069" style="stroke:#181818;stroke-width:1;"/><text fill="#000000" font-family="sans-serif" font-size="13" lengthAdjust="spacing" textLength="141.8955" x="201.6575" y="564.8638">JournalUpdated Event</text></g><g class="caption" data-source-line="7"><text fill="#000000" font-family="sans-serif" font-size="14" lengthAdjust="spacing" textLength="297.0625" x="77.2295" y="756.792">Editorial Admin updates Journals/Sections.</text><text fill="#000000" font-family="sans-serif" font-size="14" lengthAdjust="spacing" textLength="433.5215" x="9" y="773.0889">JournalUpdated event keeps Submission Service data in sync.</text></g><!--SRC=[RP7BJW8n58RtVOeJJBmiG6DSe0iJWf1W8447LkBYJ5k6XauxcNP0OdntJ-TY1cGpcRR_vUkfsogJOOufS9jcraZZ8t_G4dB9FPf4I-R-94AkiT1-8R_yGAl4fAG6JX-PjrHkWyBkbKbWZTgr_HaA4VRxZ7dbgMJu05EvanhkeGiJoabozCeQMYqpWLx2goroWvfnpCg3aL3UvWer34Ig31Ibp3KwTniHDmbTRsNglIf901KHxbRAp45KnAboBYH6CjyfBe5429Je3eRt64DEFT0vwUi0kkgFiGpv5XC9dRgdIUh0nVXkt1-FuPi1V1nV14P6P5OPlpBNxwDe0OFvvEOpfDO2MWVN2Viei0SBnh7oixSZItd8Vbf4_wyNe1u9guOgBJ2aEHMfp5TcMOznQZanDgmlD9AoYF9AHsC8PLVdNu1LkztkS-j6y0GpD06jUIUuXEQbGbJ5izPsprgkLaWbU89v4MlbDd0y7tQa2hPJOhAU6-al]--></g></svg>