<svg id="Layer_1" xmlns="http://www.w3.org/2000/svg" viewBox="0 0 512 512">
  <g opacity="0.9" stroke="#2A003F" stroke-opacity="0.8" stroke-linejoin="round" stroke-linecap="round">
    <g clip-rule="evenodd" fill-rule="evenodd">
      <!-- Top-left panel -->
      <g>
        <g>
          <path d="m144.686 188.075h-126.726c-4.935 0-8.96-4.025-8.96-8.96v-119.947c0-2.467.88-4.591 2.624-6.336l41.207-41.208c1.746-1.744 3.869-2.624 6.336-2.624h85.519c4.935 0 8.96 4.025 8.96 8.96v161.155c0 4.934-4.025 8.96-8.96 8.96z" fill="#F5F5F5"></path>
          <path d="m52.832 11.624-41.208 41.209c-.797.797-1.413 1.673-1.848 2.624h37.59c4.455 0 8.09-3.634 8.09-8.09v-37.591c-.952.435-1.827 1.051-2.624 1.848z" fill="#EDE7F6"></path>
        </g>
        <!-- Top-right panel -->
        <g>
          <path d="m494.04 188.075h-126.726c-4.934 0-8.96-4.025-8.96-8.96v-119.947c0-2.467.88-4.591 2.624-6.336l41.208-41.208c1.744-1.744 3.868-2.624 6.335-2.624h85.519c4.935 0 8.96 4.025 8.96 8.96v161.155c0 4.934-4.026 8.96-8.96 8.96z" fill="#F5F5F5"></path>
          <path d="m402.185 11.624-41.208 41.208c-.797.797-1.413 1.673-1.848 2.624h37.59c4.455 0 8.09-3.634 8.09-8.09v-37.59c-.951.435-1.827 1.051-2.624 1.848z" fill="#EDE7F6"></path>
        </g>
        <!-- Bottom-left panel -->
        <g>
          <path d="m144.686 503h-126.726c-4.935 0-8.96-4.025-8.96-8.96v-119.946c0-2.467.88-4.591 2.624-6.336l41.207-41.208c1.745-1.745 3.868-2.624 6.336-2.624h85.519c4.935 0 8.96 4.025 8.96 8.96v161.154c0 4.935-4.025 8.96-8.96 8.96z" fill="#F5F5F5"></path>
          <path d="m52.832 326.55-41.207 41.208c-.797.797-1.413 1.673-1.848 2.624h37.59c4.455 0 8.09-3.634 8.09-8.09v-37.59c-.953.435-1.828 1.051-2.625 1.848z" fill="#EDE7F6"></path>
        </g>
        <!-- Bottom-right panel -->
        <g>
          <path d="m494.04 503h-126.726c-4.934 0-8.96-4.025-8.96-8.96v-119.946c0-2.467.88-4.591 2.624-6.336l41.208-41.208c1.745-1.745 3.868-2.624 6.336-2.624h85.519c4.935 0 8.96 4.025 8.96 8.96v161.154c-.001 4.935-4.027 8.96-8.961 8.96z" fill="#F5F5F5"></path>
          <path d="m402.185 326.55-41.208 41.208c-.797.797-1.413 1.673-1.848 2.624h37.59c4.455 0 8.09-3.634 8.09-8.09v-37.59c-.951.435-1.827 1.051-2.624 1.848z" fill="#EDE7F6"></path>
        </g>

        <!-- CENTRAL HUB (database-style) -->
        <g>
          <!-- Body -->
          <path d="m336.797 322.124c0 15.095-36.174 27.333-80.797 27.333s-80.797-12.237-80.797-27.333c0-24.868 0-107.38 0-132.249 0-15.095 36.174-27.333 80.797-27.333 44.622 0 80.797 12.237 80.797 27.333z" fill="#8A4FFF"></path>
          <!-- Top ellipse + inner shading -->
          <g>
            <ellipse cx="255.999" cy="189.875" rx="80.797" ry="27.332" fill="#00AEEF"></ellipse>
            <path d="m282.296 303.894c31.713-3.691 54.501-13.871 54.501-25.852 0-14.284 0-29.799 0-44.083 0 11.981-22.788 22.161-54.501 25.852-17.173 1.999-35.419 1.999-52.592 0-31.713-3.691-54.501-13.871-54.501-25.852v44.083c0 11.981 22.788 22.161 54.501 25.852 17.173 1.998 35.419 1.998 52.592 0z" fill="#6F92FF"></path>
          </g>
        </g>
      </g>

      <!-- Thin UI lines around panels (muted purple/blue/orange accents) -->
      <path d="m122.129 383.643c4.419 0 7.999-3.58 7.999-7.999s-3.58-7.999-7.999-7.999h-36.284c-4.42 0-7.999 3.58-7.999 7.999s3.58 7.999 7.999 7.999zm-81.613 25.214h81.613c4.419 0 7.999-3.58 7.999-7.999s-3.58-7.999-7.999-7.999h-81.613c-4.419 0-7.999 3.58-7.999 7.999s3.58 7.999 7.999 7.999zm0 25.214h81.613c4.419 0 7.999-3.584 7.999-7.999 0-4.419-3.58-7.999-7.999-7.999h-81.613c-4.419 0-7.999 3.58-7.999 7.999 0 4.415 3.58 7.999 7.999 7.999zm0 25.214h81.613c4.419 0 7.999-3.584 7.999-8.004 0-4.414-3.58-7.999-7.999-7.999h-81.613c-4.419 0-7.999 3.585-7.999 7.999 0 4.42 3.58 8.004 7.999 8.004zm81.613 9.211h-81.613c-4.419 0-7.999 3.58-7.999 8.004 0 4.415 3.58 7.999 7.999 7.999h81.613c4.419 0 7.999-3.584 7.999-7.999 0-4.424-3.58-8.004-7.999-8.004zm0-126.065h-36.284c-4.42 0-7.999 3.58-7.999 7.999s3.58 7.999 7.999 7.999h36.284c4.419 0 7.999-3.58 7.999-7.999s-3.58-7.999-7.999-7.999zm349.35 41.212c4.434 0 8.018-3.58 8.018-7.999s-3.584-7.999-8.018-7.999h-36.274c-4.419 0-7.999 3.58-7.999 7.999s3.58 7.999 7.999 7.999zm-81.608 25.214h81.608c4.434 0 8.018-3.58 8.018-7.999s-3.584-7.999-8.018-7.999h-81.608c-4.424 0-8.004 3.58-8.004 7.999s3.58 7.999 8.004 7.999zm0 25.214h81.608c4.434 0 8.018-3.584 8.018-7.999 0-4.419-3.584-7.999-8.018-7.999h-81.608c-4.424 0-8.004 3.58-8.004 7.999 0 4.415 3.58 7.999 8.004 7.999zm0 25.214h81.608c4.434 0 8.018-3.584 8.018-8.004 0-4.414-3.584-7.999-8.018-7.999h-81.608c-4.424 0-8.004 3.585-8.004 7.999 0 4.42 3.58 8.004 8.004 8.004zm81.608 9.211h-81.608c-4.424 0-8.004 3.58-8.004 8.004 0 4.415 3.58 7.999 8.004 7.999h81.608c4.434 0 8.018-3.584 8.018-7.999.001-4.424-3.584-8.004-8.018-8.004zm-36.274-110.067h36.274c4.434 0 8.018-3.58 8.018-7.999s-3.584-7.999-8.018-7.999h-36.274c-4.419 0-7.999 3.58-7.999 7.999.001 4.419 3.58 7.999 7.999 7.999zm36.274-289.711c4.434 0 8.018-3.58 8.018-7.999s-3.584-7.999-8.018-7.999h-36.274c-4.419 0-7.999 3.58-7.999 7.999 0 4.42 3.58 7.999 7.999 7.999zm-81.608 25.214h81.608c4.434 0 8.018-3.58 8.018-7.999s-3.584-7.999-8.018-7.999h-81.608c-4.424 0-8.004 3.58-8.004 7.999s3.58 7.999 8.004 7.999zm0 25.214h81.608c4.434 0 8.018-3.58 8.018-8.004 0-4.415-3.584-7.999-8.018-7.999h-81.608c-4.424 0-8.004 3.584-8.004 7.999 0 4.424 3.58 8.004 8.004 8.004zm0 25.214h81.608c4.434 0 8.018-3.584 8.018-7.999 0-4.419-3.584-8.004-8.018-8.004h-81.608c-4.424 0-8.004 3.585-8.004 8.004 0 4.414 3.58 7.999 8.004 7.999zm81.608 9.211h-81.608c-4.424 0-8.004 3.584-8.004 7.999 0 4.419 3.58 8.004 8.004 8.004h81.608c4.434 0 8.018-3.584 8.018-8.004.001-4.415-3.584-7.999-8.018-7.999zm-36.274-110.067h36.274c4.434 0 8.018-3.58 8.018-7.999s-3.584-7.999-8.018-7.999h-36.274c-4.419 0-7.999 3.58-7.999 7.999s3.58 7.999 7.999 7.999zm-57.54 3.952h19.054c.038 0 .09-.052.09-.09v-19.05z" fill="#8A4FFF" fill-opacity="0.2"></path>
      <!-- Inner device shapes (muted) -->
      <path d="m116.759 73.5h-81.231v30.364c0 8.872-7.216 16.092-16.088 16.092h-30.369v115.656c0 .519.439.962.958.962h126.73c.519 0 .962-.443.962-.962V72.542c0-.519-.443-.958-.962-.958z" fill="#00AEEF" fill-opacity="0.12"></path>
      <path d="m383.844 73.5h81.216v161.156c0 .524-.471.962-.99.962h-126.716c-.519 0-.962-.438-.962-.962V119.0h30.374c8.867 0 16.088-7.221 16.088-16.092V73.5z" fill="#F9A825" fill-opacity="0.12"></path>
      <path d="m116.759 388.455h-81.231v119.949c0 .524-.443.962-.962.962h-126.731c-.519 0-.958-.438-.958-.962v-115.657h30.369c8.872 0 16.088-7.221 16.088-16.092v-30.364h81.231c.519 0 .963.438.963.957z" fill="#8A4FFF" fill-opacity="0.12"></path>
      <path d="m383.844 388.455h81.216v161.156c0 .524-.471.962-.99.962h-126.716c-.519 0-.962-.438-.962-.962v-115.657h30.374c8.867 0 16.088-7.221 16.088-16.092v-30.364z" fill="#00AEEF" fill-opacity="0.12"></path>
    </g>
  </g>
</svg>
